<svg xmlns="http://www.w3.org/2000/svg" xmlns:xlink="http://www.w3.org/1999/xlink" width="279" zoomAndPan="magnify" viewBox="0 0 209.25 268.500001" height="358" preserveAspectRatio="xMidYMid meet" version="1.0"><defs><filter x="0%" y="0%" width="100%" height="100%" id="5e37c8e08d"><feColorMatrix values="0 0 0 0 1 0 0 0 0 1 0 0 0 0 1 0 0 0 1 0" color-interpolation-filters="sRGB"/></filter><g/><clipPath id="f0108e0773"><path d="M 0 0.230469 L 207.945312 0.230469 L 207.945312 208.175781 L 0 208.175781 Z M 0 0.230469 " clip-rule="nonzero"/></clipPath><clipPath id="7bac6de377"><path d="M 103.972656 0.230469 C 46.550781 0.230469 0 46.78125 0 104.203125 C 0 161.625 46.550781 208.175781 103.972656 208.175781 C 161.394531 208.175781 207.945312 161.625 207.945312 104.203125 C 207.945312 46.78125 161.394531 0.230469 103.972656 0.230469 Z M 103.972656 0.230469 " clip-rule="nonzero"/></clipPath><clipPath id="0e9045c6bc"><path d="M 0 0.230469 L 207.945312 0.230469 L 207.945312 208.175781 L 0 208.175781 Z M 0 0.230469 " clip-rule="nonzero"/></clipPath><clipPath id="c516acd27c"><path d="M 103.972656 0.230469 C 46.550781 0.230469 0 46.78125 0 104.203125 C 0 161.625 46.550781 208.175781 103.972656 208.175781 C 161.394531 208.175781 207.945312 161.625 207.945312 104.203125 C 207.945312 46.78125 161.394531 0.230469 103.972656 0.230469 Z M 103.972656 0.230469 " clip-rule="nonzero"/></clipPath><clipPath id="ee7901eba3"><rect x="0" width="208" y="0" height="209"/></clipPath><mask id="60d3f1c03e"><g filter="url(#5e37c8e08d)"><rect x="-20.925" width="251.1" fill="#000000" y="-26.85" height="322.200001" fill-opacity="0.8"/></g></mask><clipPath id="a9950a1610"><path d="M 0.4375 0.667969 L 193.507812 0.667969 L 193.507812 193.738281 L 0.4375 193.738281 Z M 0.4375 0.667969 " clip-rule="nonzero"/></clipPath><clipPath id="82ceccbe31"><path d="M 96.972656 0.667969 C 43.660156 0.667969 0.4375 43.890625 0.4375 97.203125 C 0.4375 150.515625 43.660156 193.738281 96.972656 193.738281 C 150.285156 193.738281 193.507812 150.515625 193.507812 97.203125 C 193.507812 43.890625 150.285156 0.667969 96.972656 0.667969 Z M 96.972656 0.667969 " clip-rule="nonzero"/></clipPath><clipPath id="53dd49b8d0"><path d="M 0.4375 0.667969 L 193.507812 0.667969 L 193.507812 193.738281 L 0.4375 193.738281 Z M 0.4375 0.667969 " clip-rule="nonzero"/></clipPath><clipPath id="8641d53955"><path d="M 96.972656 0.667969 C 43.660156 0.667969 0.4375 43.890625 0.4375 97.203125 C 0.4375 150.515625 43.660156 193.738281 96.972656 193.738281 C 150.285156 193.738281 193.507812 150.515625 193.507812 97.203125 C 193.507812 43.890625 150.285156 0.667969 96.972656 0.667969 Z M 96.972656 0.667969 " clip-rule="nonzero"/></clipPath><clipPath id="f0cabddf32"><rect x="0" width="194" y="0" height="194"/></clipPath><clipPath id="056cd3fa9a"><rect x="0" width="194" y="0" height="194"/></clipPath><clipPath id="2661d7860d"><path d="M 67.613281 15.175781 L 101.625 15.175781 L 101.625 90.636719 L 67.613281 90.636719 Z M 67.613281 15.175781 " clip-rule="nonzero"/></clipPath><clipPath id="b49d328c74"><path d="M 84.617188 15.175781 L 67.613281 38.671875 L 79.359375 38.671875 L 79.359375 90.613281 L 89.878906 90.613281 L 89.878906 38.671875 L 101.625 38.671875 Z M 84.617188 15.175781 " clip-rule="nonzero"/></clipPath><clipPath id="069ce6f857"><path d="M 0.613281 0.175781 L 34.625 0.175781 L 34.625 75.625 L 0.613281 75.625 Z M 0.613281 0.175781 " clip-rule="nonzero"/></clipPath><clipPath id="da05c6056f"><path d="M 17.617188 0.175781 L 0.613281 23.671875 L 12.359375 23.671875 L 12.359375 75.613281 L 22.878906 75.613281 L 22.878906 23.671875 L 34.625 23.671875 Z M 17.617188 0.175781 " clip-rule="nonzero"/></clipPath><clipPath id="e43c0d38bd"><rect x="0" width="35" y="0" height="76"/></clipPath><clipPath id="ab1d2be7f2"><path d="M 106.320312 15.175781 L 140.332031 15.175781 L 140.332031 90.636719 L 106.320312 90.636719 Z M 106.320312 15.175781 " clip-rule="nonzero"/></clipPath><clipPath id="ba7b3facda"><path d="M 123.328125 15.175781 L 106.320312 38.671875 L 118.066406 38.671875 L 118.066406 90.613281 L 128.585938 90.613281 L 128.585938 38.671875 L 140.332031 38.671875 Z M 123.328125 15.175781 " clip-rule="nonzero"/></clipPath><clipPath id="114b53b69d"><path d="M 0.320312 0.175781 L 34.332031 0.175781 L 34.332031 75.625 L 0.320312 75.625 Z M 0.320312 0.175781 " clip-rule="nonzero"/></clipPath><clipPath id="b2c01e59c4"><path d="M 17.328125 0.175781 L 0.320312 23.671875 L 12.066406 23.671875 L 12.066406 75.613281 L 22.585938 75.613281 L 22.585938 23.671875 L 34.332031 23.671875 Z M 17.328125 0.175781 " clip-rule="nonzero"/></clipPath><clipPath id="5f751912e5"><rect x="0" width="35" y="0" height="76"/></clipPath><clipPath id="fde29f97ab"><path d="M 25.441406 82.152344 L 162 82.152344 L 162 200.976562 L 25.441406 200.976562 Z M 25.441406 82.152344 " clip-rule="nonzero"/></clipPath><clipPath id="c31c5525fa"><path d="M 72 92 L 182.378906 92 L 182.378906 158 L 72 158 Z M 72 92 " clip-rule="nonzero"/></clipPath></defs><g clip-path="url(#f0108e0773)"><g clip-path="url(#7bac6de377)"><g transform="matrix(1, 0, 0, 1, 0, -0.000000000000040024)"><g clip-path="url(#ee7901eba3)"><g clip-path="url(#0e9045c6bc)"><g clip-path="url(#c516acd27c)"><path fill="#49677c" d="M 0 0.230469 L 207.945312 0.230469 L 207.945312 208.175781 L 0 208.175781 Z M 0 0.230469 " fill-opacity="1" fill-rule="nonzero"/></g></g></g></g></g></g><g mask="url(#60d3f1c03e)"><g transform="matrix(1, 0, 0, 1, 7, 7)"><g clip-path="url(#056cd3fa9a)"><g clip-path="url(#a9950a1610)"><g clip-path="url(#82ceccbe31)"><g transform="matrix(1, 0, 0, 1, -0.000000000000001776, -0.000000000000041744)"><g clip-path="url(#f0cabddf32)"><g clip-path="url(#53dd49b8d0)"><g clip-path="url(#8641d53955)"><path fill="#ffffff" d="M 0.4375 0.667969 L 193.507812 0.667969 L 193.507812 193.738281 L 0.4375 193.738281 Z M 0.4375 0.667969 " fill-opacity="1" fill-rule="nonzero"/></g></g></g></g></g></g></g></g></g><g clip-path="url(#2661d7860d)"><g clip-path="url(#b49d328c74)"><g transform="matrix(1, 0, 0, 1, 67, 15)"><g clip-path="url(#e43c0d38bd)"><g clip-path="url(#069ce6f857)"><g clip-path="url(#da05c6056f)"><path fill="#49677c" d="M 0.613281 0.175781 L 34.625 0.175781 L 34.625 75.636719 L 0.613281 75.636719 Z M 0.613281 0.175781 " fill-opacity="1" fill-rule="nonzero"/></g></g></g></g></g></g><g clip-path="url(#ab1d2be7f2)"><g clip-path="url(#ba7b3facda)"><g transform="matrix(1, 0, 0, 1, 106, 15)"><g clip-path="url(#5f751912e5)"><g clip-path="url(#114b53b69d)"><g clip-path="url(#b2c01e59c4)"><path fill="#49677c" d="M 0.320312 0.175781 L 34.332031 0.175781 L 34.332031 75.636719 L 0.320312 75.636719 Z M 0.320312 0.175781 " fill-opacity="1" fill-rule="nonzero"/></g></g></g></g></g></g><path fill="#49677c" d="M 63.335938 163.789062 C 62.988281 162.097656 62.003906 160.640625 60.5625 159.6875 C 59.5 158.984375 58.265625 158.613281 56.996094 158.613281 C 54.8125 158.613281 52.792969 159.695312 51.589844 161.519531 L 48.625 166.003906 C 46.65625 168.980469 47.484375 173.007812 50.460938 174.976562 C 51.523438 175.675781 52.753906 176.050781 54.023438 176.050781 C 56.210938 176.050781 58.230469 174.960938 59.433594 173.140625 L 62.398438 168.65625 C 63.34375 167.214844 63.683594 165.484375 63.335938 163.789062 Z M 63.335938 163.789062 " fill-opacity="1" fill-rule="nonzero"/><path fill="#49677c" d="M 78.089844 169.429688 C 77.742188 167.734375 76.757812 166.28125 75.316406 165.328125 C 74.25 164.625 73.023438 164.253906 71.753906 164.253906 C 69.566406 164.253906 67.546875 165.335938 66.34375 167.15625 L 61.046875 175.492188 C 60.089844 176.941406 59.753906 178.667969 60.101562 180.363281 C 60.449219 182.058594 61.433594 183.515625 62.875 184.464844 C 63.9375 185.167969 65.171875 185.542969 66.4375 185.542969 C 68.625 185.542969 70.644531 184.457031 71.847656 182.636719 L 77.148438 174.300781 C 78.101562 172.851562 78.4375 171.125 78.089844 169.429688 Z M 78.089844 169.429688 " fill-opacity="1" fill-rule="nonzero"/><path fill="#49677c" d="M 91.691406 177.074219 C 91.34375 175.378906 90.359375 173.921875 88.917969 172.964844 C 87.851562 172.265625 86.621094 171.894531 85.351562 171.894531 C 83.167969 171.894531 81.148438 172.980469 79.945312 174.800781 L 74.644531 183.132812 C 72.671875 186.117188 73.496094 190.140625 76.472656 192.109375 C 77.539062 192.8125 78.769531 193.183594 80.039062 193.183594 C 82.222656 193.183594 84.246094 192.097656 85.445312 190.277344 L 90.746094 181.945312 C 91.703125 180.492188 92.039062 178.769531 91.691406 177.074219 Z M 91.691406 177.074219 " fill-opacity="1" fill-rule="nonzero"/><path fill="#49677c" d="M 103.800781 186.957031 C 103.457031 185.261719 102.472656 183.800781 101.03125 182.851562 C 99.964844 182.148438 98.730469 181.777344 97.464844 181.777344 C 95.285156 181.777344 93.261719 182.863281 92.058594 184.683594 L 89 189.460938 C 87.03125 192.445312 87.855469 196.472656 90.835938 198.441406 C 91.894531 199.140625 93.128906 199.515625 94.394531 199.515625 C 96.582031 199.515625 98.601562 198.429688 99.804688 196.609375 L 102.859375 191.824219 C 103.816406 190.378906 104.152344 188.652344 103.800781 186.957031 Z M 103.800781 186.957031 " fill-opacity="1" fill-rule="nonzero"/><g clip-path="url(#fde29f97ab)"><path fill="#49677c" d="M 158.875 159.453125 L 101.558594 120.355469 L 91.878906 122.523438 L 85.417969 132.429688 C 83.941406 134.664062 81.464844 135.996094 78.789062 135.996094 C 77.234375 135.996094 75.722656 135.542969 74.417969 134.679688 C 72.648438 133.511719 71.445312 131.726562 71.015625 129.648438 C 70.59375 127.570312 71.003906 125.449219 72.171875 123.683594 L 79.484375 112.226562 C 81.578125 108.496094 84.128906 105.363281 87.078125 102.917969 L 67.21875 105.15625 L 25.71875 82.230469 L 25.71875 144.121094 L 51.117188 158.902344 C 52.714844 157.378906 54.789062 156.542969 56.996094 156.542969 C 58.675781 156.542969 60.300781 157.03125 61.699219 157.960938 C 63.605469 159.214844 64.90625 161.140625 65.363281 163.375 C 65.460938 163.871094 65.519531 164.367188 65.53125 164.875 C 67.132812 163.167969 69.375 162.183594 71.753906 162.183594 C 73.429688 162.183594 75.054688 162.671875 76.457031 163.601562 C 78.363281 164.859375 79.664062 166.78125 80.121094 169.015625 C 80.289062 169.847656 80.332031 170.6875 80.253906 171.523438 C 81.71875 170.421875 83.492188 169.828125 85.351562 169.828125 C 87.027344 169.828125 88.65625 170.316406 90.054688 171.242188 C 91.957031 172.496094 93.257812 174.417969 93.714844 176.660156 C 93.988281 177.992188 93.941406 179.34375 93.582031 180.636719 C 96.242188 179.277344 99.621094 179.445312 102.167969 181.128906 C 104.074219 182.382812 105.375 184.308594 105.832031 186.542969 C 106.285156 188.78125 105.851562 191.050781 104.597656 192.945312 L 104.566406 192.996094 L 104.890625 193.203125 L 114.046875 199.511719 C 115.199219 200.382812 116.550781 200.839844 117.972656 200.839844 C 120.019531 200.839844 121.898438 199.90625 123.132812 198.28125 C 125.292969 195.4375 124.734375 191.367188 121.898438 189.210938 L 111.46875 182.027344 L 112.566406 180.222656 L 127.414062 190.445312 C 128.566406 191.320312 129.917969 191.777344 131.339844 191.777344 C 133.386719 191.777344 135.269531 190.84375 136.503906 189.21875 C 138.660156 186.371094 138.105469 182.304688 135.261719 180.144531 L 119.304688 169.15625 L 120.5 167.199219 L 138.746094 179.757812 C 139.894531 180.632812 141.25 181.089844 142.671875 181.089844 C 144.71875 181.089844 146.597656 180.15625 147.832031 178.53125 C 149.992188 175.6875 149.433594 171.617188 146.59375 169.457031 L 127.238281 156.132812 L 128.441406 154.164062 L 150.859375 169.601562 C 152.007812 170.472656 153.363281 170.929688 154.785156 170.929688 C 156.832031 170.929688 158.714844 169.996094 159.945312 168.371094 C 162.054688 165.582031 161.589844 161.664062 158.875 159.453125 Z M 158.875 159.453125 " fill-opacity="1" fill-rule="nonzero"/></g><g clip-path="url(#c31c5525fa)"><path fill="#49677c" d="M 73.046875 129.234375 C 73.359375 130.765625 74.253906 132.089844 75.5625 132.953125 C 76.523438 133.589844 77.640625 133.925781 78.789062 133.925781 C 80.769531 133.925781 82.597656 132.941406 83.691406 131.292969 L 90.605469 120.691406 L 101.984375 118.136719 L 102.355469 118.390625 L 160.074219 157.761719 L 182.261719 143.390625 L 182.261719 92.546875 L 148.957031 103.710938 L 148.710938 103.683594 L 109.691406 99.136719 C 109.4375 99.074219 107.582031 98.648438 104.820312 98.648438 C 99.085938 98.648438 88.40625 100.546875 81.265625 113.289062 L 73.914062 124.808594 C 73.039062 126.128906 72.730469 127.699219 73.046875 129.234375 Z M 73.046875 129.234375 " fill-opacity="1" fill-rule="nonzero"/></g><g fill="#ffffff" fill-opacity="1"><g transform="translate(22.876614, 249.512324)"><g><path d="M 21.0625 -14.125 L 16.421875 -14.125 C 16.242188 -15.320312 15.734375 -16.257812 14.890625 -16.9375 C 14.046875 -17.625 12.992188 -17.96875 11.734375 -17.96875 C 10.054688 -17.96875 8.707031 -17.347656 7.6875 -16.109375 C 6.675781 -14.878906 6.171875 -13.132812 6.171875 -10.875 C 6.171875 -8.550781 6.679688 -6.785156 7.703125 -5.578125 C 8.722656 -4.367188 10.054688 -3.765625 11.703125 -3.765625 C 12.929688 -3.765625 13.96875 -4.082031 14.8125 -4.71875 C 15.664062 -5.363281 16.203125 -6.269531 16.421875 -7.4375 L 21.0625 -7.40625 C 20.90625 -6.070312 20.429688 -4.816406 19.640625 -3.640625 C 18.859375 -2.472656 17.789062 -1.523438 16.4375 -0.796875 C 15.09375 -0.0664062 13.492188 0.296875 11.640625 0.296875 C 9.691406 0.296875 7.957031 -0.140625 6.4375 -1.015625 C 4.914062 -1.890625 3.710938 -3.160156 2.828125 -4.828125 C 1.941406 -6.492188 1.5 -8.507812 1.5 -10.875 C 1.5 -13.238281 1.945312 -15.253906 2.84375 -16.921875 C 3.738281 -18.585938 4.945312 -19.851562 6.46875 -20.71875 C 8 -21.59375 9.722656 -22.03125 11.640625 -22.03125 C 13.316406 -22.03125 14.828125 -21.71875 16.171875 -21.09375 C 17.515625 -20.476562 18.613281 -19.582031 19.46875 -18.40625 C 20.332031 -17.226562 20.863281 -15.800781 21.0625 -14.125 Z M 21.0625 -14.125 "/></g></g></g><g fill="#ffffff" fill-opacity="1"><g transform="translate(45.351196, 249.512324)"><g><path d="M 21.859375 -10.875 C 21.859375 -8.5 21.410156 -6.476562 20.515625 -4.8125 C 19.628906 -3.15625 18.414062 -1.890625 16.875 -1.015625 C 15.34375 -0.140625 13.613281 0.296875 11.6875 0.296875 C 9.75 0.296875 8.015625 -0.140625 6.484375 -1.015625 C 4.953125 -1.890625 3.738281 -3.160156 2.84375 -4.828125 C 1.945312 -6.492188 1.5 -8.507812 1.5 -10.875 C 1.5 -13.238281 1.945312 -15.253906 2.84375 -16.921875 C 3.738281 -18.585938 4.953125 -19.851562 6.484375 -20.71875 C 8.015625 -21.59375 9.75 -22.03125 11.6875 -22.03125 C 13.613281 -22.03125 15.34375 -21.59375 16.875 -20.71875 C 18.414062 -19.851562 19.628906 -18.585938 20.515625 -16.921875 C 21.410156 -15.253906 21.859375 -13.238281 21.859375 -10.875 Z M 17.203125 -10.875 C 17.203125 -13.175781 16.695312 -14.929688 15.6875 -16.140625 C 14.6875 -17.359375 13.351562 -17.96875 11.6875 -17.96875 C 10.019531 -17.96875 8.679688 -17.359375 7.671875 -16.140625 C 6.671875 -14.929688 6.171875 -13.175781 6.171875 -10.875 C 6.171875 -8.570312 6.671875 -6.8125 7.671875 -5.59375 C 8.679688 -4.375 10.019531 -3.765625 11.6875 -3.765625 C 13.351562 -3.765625 14.6875 -4.375 15.6875 -5.59375 C 16.695312 -6.8125 17.203125 -8.570312 17.203125 -10.875 Z M 17.203125 -10.875 "/></g></g></g><g fill="#ffffff" fill-opacity="1"><g transform="translate(67.878724, 249.512324)"><g><path d="M 5.8125 -21.734375 L 11.078125 -5.21875 L 11.265625 -5.21875 L 16.53125 -21.734375 L 21.625 -21.734375 L 14.140625 0 L 8.21875 0 L 0.71875 -21.734375 Z M 5.8125 -21.734375 "/></g></g></g><g fill="#ffffff" fill-opacity="1"><g transform="translate(90.225978, 249.512324)"><g><path d="M 6.484375 -21.734375 L 6.484375 0 L 1.890625 0 L 1.890625 -21.734375 Z M 6.484375 -21.734375 "/></g></g></g><g fill="#ffffff" fill-opacity="1"><g transform="translate(98.60885, 249.512324)"><g><path d="M 1.890625 -21.734375 L 7.5625 -21.734375 L 13.546875 -7.140625 L 13.796875 -7.140625 L 19.78125 -21.734375 L 25.453125 -21.734375 L 25.453125 0 L 21 0 L 21 -14.15625 L 20.8125 -14.15625 L 15.1875 -0.109375 L 12.15625 -0.109375 L 6.53125 -14.203125 L 6.34375 -14.203125 L 6.34375 0 L 1.890625 0 Z M 1.890625 -21.734375 "/></g></g></g><g fill="#ffffff" fill-opacity="1"><g transform="translate(126.219272, 249.512324)"><g><path d="M 1.0625 -17.953125 L 1.0625 -21.734375 L 18.921875 -21.734375 L 18.921875 -17.953125 L 12.265625 -17.953125 L 12.265625 0 L 7.71875 0 L 7.71875 -17.953125 Z M 1.0625 -17.953125 "/></g></g></g><g fill="#ffffff" fill-opacity="1"><g transform="translate(146.189604, 249.512324)"><g/></g></g><g fill="#ffffff" fill-opacity="1"><g transform="translate(153.118736, 249.512324)"><g><path d="M 10.765625 -21.734375 L 10.765625 0 L 6.171875 0 L 6.171875 -16.109375 L 5.96875 -16.109375 C 5.738281 -15.753906 5.242188 -15.394531 4.484375 -15.03125 C 3.734375 -14.675781 2.753906 -14.5 1.546875 -14.5 L 1.546875 -18.15625 C 2.484375 -18.15625 3.300781 -18.359375 4 -18.765625 C 4.695312 -19.179688 5.242188 -19.671875 5.640625 -20.234375 C 6.035156 -20.796875 6.242188 -21.296875 6.265625 -21.734375 Z M 10.765625 -21.734375 "/></g></g></g><g fill="#ffffff" fill-opacity="1"><g transform="translate(167.284728, 249.512324)"><g><path d="M 2.625 0 L 11.640625 -17.828125 L 11.640625 -17.984375 L 1.140625 -17.984375 L 1.140625 -21.734375 L 16.390625 -21.734375 L 16.390625 -17.921875 L 7.359375 0 Z M 2.625 0 "/></g></g></g></svg>